<?xml version="1.0" encoding="utf-8"?>
<!-- Generator: Adobe Illustrator 23.0.3, SVG Export Plug-In . SVG Version: 6.00 Build 0)  -->
<svg version="1.1" id="katman_1" xmlns="http://www.w3.org/2000/svg" xmlns:xlink="http://www.w3.org/1999/xlink" x="0px" y="0px"
	 viewBox="0 0 24 24" style="enable-background:new 0 0 24 24;" xml:space="preserve">
<style type="text/css">
	.st0{fill:none;stroke:#FFFFFF;stroke-linecap:round;stroke-linejoin:round;}
</style>
<path class="st0" d="M11.8,14.3c2.4,0,4.4-2,4.4-4.4s-2-4.4-4.4-4.4c-2.4,0-4.4,2-4.4,4.4S9.4,14.3,11.8,14.3z"/>
<path class="st0" d="M20.7,9.8c0,7.8-6.8,12.1-8.5,13.1C12.1,23,12,23,11.8,23c-0.1,0-0.3,0-0.4-0.1C9.8,22,3,17.6,3,9.8
	c0-2.3,0.9-4.6,2.6-6.3C7.2,1.9,9.5,1,11.8,1c2.3,0,4.6,0.9,6.3,2.6S20.7,7.5,20.7,9.8z"/>
</svg>
